<mxfile host="app.diagrams.net" modified="2021-09-24T01:20:16.176Z" agent="5.0 (Windows NT 10.0; Win64; x64) AppleWebKit/537.36 (KHTML, like Gecko) Chrome/93.0.4577.82 Safari/537.36" etag="rZBFV72o3VXDWr9-CAWG" version="15.3.1" type="github">
  <diagram id="DjSSohd4QkqJoT5xOUC1" name="Page-1">
    <mxGraphModel dx="3128" dy="2080" grid="1" gridSize="10" guides="1" tooltips="1" connect="1" arrows="1" fold="1" page="1" pageScale="1" pageWidth="827" pageHeight="1169" math="0" shadow="0">
      <root>
        <mxCell id="0" />
        <mxCell id="1" parent="0" />
        <mxCell id="T34LJDAt4XdsQyvQCG7Y-6" style="edgeStyle=orthogonalEdgeStyle;rounded=0;orthogonalLoop=1;jettySize=auto;html=1;exitX=0.5;exitY=1;exitDx=0;exitDy=0;" edge="1" parent="1">
          <mxGeometry relative="1" as="geometry">
            <mxPoint x="296" y="280" as="targetPoint" />
            <mxPoint x="246" y="279.9999999999999" as="sourcePoint" />
          </mxGeometry>
        </mxCell>
        <mxCell id="T34LJDAt4XdsQyvQCG7Y-5" value="g" style="text;html=1;strokeColor=none;fillColor=none;align=center;verticalAlign=middle;whiteSpace=wrap;rounded=0;" vertex="1" parent="1">
          <mxGeometry x="200" y="270" width="40" height="20" as="geometry" />
        </mxCell>
        <mxCell id="T34LJDAt4XdsQyvQCG7Y-9" style="edgeStyle=orthogonalEdgeStyle;rounded=0;orthogonalLoop=1;jettySize=auto;html=1;exitX=1;exitY=0;exitDx=0;exitDy=0;" edge="1" parent="1" source="T34LJDAt4XdsQyvQCG7Y-7" target="T34LJDAt4XdsQyvQCG7Y-12">
          <mxGeometry relative="1" as="geometry">
            <mxPoint x="376" y="230" as="targetPoint" />
          </mxGeometry>
        </mxCell>
        <mxCell id="T34LJDAt4XdsQyvQCG7Y-10" style="edgeStyle=orthogonalEdgeStyle;rounded=0;orthogonalLoop=1;jettySize=auto;html=1;exitX=1;exitY=1;exitDx=0;exitDy=0;" edge="1" parent="1" source="T34LJDAt4XdsQyvQCG7Y-7" target="T34LJDAt4XdsQyvQCG7Y-11">
          <mxGeometry relative="1" as="geometry">
            <mxPoint x="376" y="330" as="targetPoint" />
          </mxGeometry>
        </mxCell>
        <mxCell id="T34LJDAt4XdsQyvQCG7Y-7" value="reserva" style="text;html=1;strokeColor=none;fillColor=none;align=center;verticalAlign=middle;whiteSpace=wrap;rounded=0;" vertex="1" parent="1">
          <mxGeometry x="296" y="270" width="40" height="20" as="geometry" />
        </mxCell>
        <mxCell id="T34LJDAt4XdsQyvQCG7Y-16" style="edgeStyle=orthogonalEdgeStyle;rounded=0;orthogonalLoop=1;jettySize=auto;html=1;exitX=1;exitY=0.5;exitDx=0;exitDy=0;" edge="1" parent="1" source="T34LJDAt4XdsQyvQCG7Y-11" target="T34LJDAt4XdsQyvQCG7Y-17">
          <mxGeometry relative="1" as="geometry">
            <mxPoint x="476" y="330" as="targetPoint" />
          </mxGeometry>
        </mxCell>
        <mxCell id="T34LJDAt4XdsQyvQCG7Y-11" value="bebida&lt;br&gt;" style="text;html=1;strokeColor=none;fillColor=none;align=center;verticalAlign=middle;whiteSpace=wrap;rounded=0;" vertex="1" parent="1">
          <mxGeometry x="376" y="320" width="40" height="20" as="geometry" />
        </mxCell>
        <mxCell id="T34LJDAt4XdsQyvQCG7Y-13" style="edgeStyle=orthogonalEdgeStyle;rounded=0;orthogonalLoop=1;jettySize=auto;html=1;exitX=1;exitY=0.5;exitDx=0;exitDy=0;" edge="1" parent="1" source="T34LJDAt4XdsQyvQCG7Y-12" target="T34LJDAt4XdsQyvQCG7Y-15">
          <mxGeometry relative="1" as="geometry">
            <mxPoint x="426" y="230" as="targetPoint" />
          </mxGeometry>
        </mxCell>
        <mxCell id="T34LJDAt4XdsQyvQCG7Y-12" value="Comida" style="text;html=1;strokeColor=none;fillColor=none;align=center;verticalAlign=middle;whiteSpace=wrap;rounded=0;" vertex="1" parent="1">
          <mxGeometry x="356" y="220" width="40" height="20" as="geometry" />
        </mxCell>
        <mxCell id="T34LJDAt4XdsQyvQCG7Y-22" style="edgeStyle=orthogonalEdgeStyle;rounded=0;orthogonalLoop=1;jettySize=auto;html=1;exitX=1;exitY=0.5;exitDx=0;exitDy=0;" edge="1" parent="1" source="T34LJDAt4XdsQyvQCG7Y-15">
          <mxGeometry relative="1" as="geometry">
            <mxPoint x="526.0000000000002" y="230.33333333333337" as="targetPoint" />
          </mxGeometry>
        </mxCell>
        <mxCell id="T34LJDAt4XdsQyvQCG7Y-15" value="Pedido" style="text;html=1;strokeColor=none;fillColor=none;align=center;verticalAlign=middle;whiteSpace=wrap;rounded=0;" vertex="1" parent="1">
          <mxGeometry x="466" y="220" width="40" height="20" as="geometry" />
        </mxCell>
        <mxCell id="T34LJDAt4XdsQyvQCG7Y-18" style="edgeStyle=orthogonalEdgeStyle;rounded=0;orthogonalLoop=1;jettySize=auto;html=1;exitX=0.5;exitY=1;exitDx=0;exitDy=0;" edge="1" parent="1" source="T34LJDAt4XdsQyvQCG7Y-17">
          <mxGeometry relative="1" as="geometry">
            <mxPoint x="476" y="360" as="targetPoint" />
          </mxGeometry>
        </mxCell>
        <mxCell id="T34LJDAt4XdsQyvQCG7Y-20" style="edgeStyle=orthogonalEdgeStyle;rounded=0;orthogonalLoop=1;jettySize=auto;html=1;exitX=1;exitY=0.5;exitDx=0;exitDy=0;" edge="1" parent="1" source="T34LJDAt4XdsQyvQCG7Y-17" target="T34LJDAt4XdsQyvQCG7Y-21">
          <mxGeometry relative="1" as="geometry">
            <mxPoint x="516" y="330" as="targetPoint" />
          </mxGeometry>
        </mxCell>
        <mxCell id="T34LJDAt4XdsQyvQCG7Y-17" value="pedido" style="text;html=1;strokeColor=none;fillColor=none;align=center;verticalAlign=middle;whiteSpace=wrap;rounded=0;" vertex="1" parent="1">
          <mxGeometry x="456" y="320" width="40" height="20" as="geometry" />
        </mxCell>
        <mxCell id="T34LJDAt4XdsQyvQCG7Y-19" value="bar" style="text;html=1;strokeColor=none;fillColor=none;align=center;verticalAlign=middle;whiteSpace=wrap;rounded=0;" vertex="1" parent="1">
          <mxGeometry x="460" y="360" width="40" height="20" as="geometry" />
        </mxCell>
        <mxCell id="T34LJDAt4XdsQyvQCG7Y-26" style="edgeStyle=orthogonalEdgeStyle;rounded=0;orthogonalLoop=1;jettySize=auto;html=1;exitX=1;exitY=0.5;exitDx=0;exitDy=0;" edge="1" parent="1" source="T34LJDAt4XdsQyvQCG7Y-21" target="T34LJDAt4XdsQyvQCG7Y-27">
          <mxGeometry relative="1" as="geometry">
            <mxPoint x="626" y="330.33333333333337" as="targetPoint" />
          </mxGeometry>
        </mxCell>
        <mxCell id="T34LJDAt4XdsQyvQCG7Y-86" style="edgeStyle=orthogonalEdgeStyle;rounded=0;orthogonalLoop=1;jettySize=auto;html=1;exitX=0.5;exitY=1;exitDx=0;exitDy=0;" edge="1" parent="1" source="T34LJDAt4XdsQyvQCG7Y-21">
          <mxGeometry relative="1" as="geometry">
            <mxPoint x="590" y="380" as="targetPoint" />
          </mxGeometry>
        </mxCell>
        <mxCell id="T34LJDAt4XdsQyvQCG7Y-21" value="confirmação de pedido" style="text;html=1;strokeColor=none;fillColor=none;align=center;verticalAlign=middle;whiteSpace=wrap;rounded=0;" vertex="1" parent="1">
          <mxGeometry x="526" y="320" width="70" height="20" as="geometry" />
        </mxCell>
        <mxCell id="T34LJDAt4XdsQyvQCG7Y-34" style="edgeStyle=orthogonalEdgeStyle;rounded=0;orthogonalLoop=1;jettySize=auto;html=1;exitX=1;exitY=0.25;exitDx=0;exitDy=0;" edge="1" parent="1" source="T34LJDAt4XdsQyvQCG7Y-24" target="T34LJDAt4XdsQyvQCG7Y-35">
          <mxGeometry relative="1" as="geometry">
            <mxPoint x="630" y="223" as="targetPoint" />
          </mxGeometry>
        </mxCell>
        <mxCell id="T34LJDAt4XdsQyvQCG7Y-24" value="Confirmação pedido" style="text;html=1;strokeColor=none;fillColor=none;align=center;verticalAlign=middle;whiteSpace=wrap;rounded=0;" vertex="1" parent="1">
          <mxGeometry x="526" y="215" width="70" height="30" as="geometry" />
        </mxCell>
        <mxCell id="T34LJDAt4XdsQyvQCG7Y-28" style="edgeStyle=orthogonalEdgeStyle;rounded=0;orthogonalLoop=1;jettySize=auto;html=1;exitX=1;exitY=0.5;exitDx=0;exitDy=0;" edge="1" parent="1" source="T34LJDAt4XdsQyvQCG7Y-27" target="T34LJDAt4XdsQyvQCG7Y-29">
          <mxGeometry relative="1" as="geometry">
            <mxPoint x="706" y="330.33333333333337" as="targetPoint" />
          </mxGeometry>
        </mxCell>
        <mxCell id="T34LJDAt4XdsQyvQCG7Y-55" style="edgeStyle=orthogonalEdgeStyle;rounded=0;orthogonalLoop=1;jettySize=auto;html=1;exitX=1;exitY=0;exitDx=0;exitDy=0;entryX=0.25;entryY=1;entryDx=0;entryDy=0;" edge="1" parent="1" source="T34LJDAt4XdsQyvQCG7Y-27" target="T34LJDAt4XdsQyvQCG7Y-53">
          <mxGeometry relative="1" as="geometry" />
        </mxCell>
        <mxCell id="T34LJDAt4XdsQyvQCG7Y-27" value="enviar p/ bar" style="text;html=1;strokeColor=none;fillColor=none;align=center;verticalAlign=middle;whiteSpace=wrap;rounded=0;" vertex="1" parent="1">
          <mxGeometry x="626" y="320.0033333333334" width="40" height="20" as="geometry" />
        </mxCell>
        <mxCell id="T34LJDAt4XdsQyvQCG7Y-30" style="edgeStyle=orthogonalEdgeStyle;rounded=0;orthogonalLoop=1;jettySize=auto;html=1;exitX=1;exitY=0.5;exitDx=0;exitDy=0;" edge="1" parent="1" source="T34LJDAt4XdsQyvQCG7Y-29">
          <mxGeometry relative="1" as="geometry">
            <mxPoint x="810" y="330.33333333333337" as="targetPoint" />
          </mxGeometry>
        </mxCell>
        <mxCell id="T34LJDAt4XdsQyvQCG7Y-29" value="andamento" style="text;html=1;strokeColor=none;fillColor=none;align=center;verticalAlign=middle;whiteSpace=wrap;rounded=0;" vertex="1" parent="1">
          <mxGeometry x="706" y="320" width="70" height="20" as="geometry" />
        </mxCell>
        <mxCell id="T34LJDAt4XdsQyvQCG7Y-31" value="concluido" style="text;html=1;align=center;verticalAlign=middle;resizable=0;points=[];autosize=1;strokeColor=none;fillColor=none;" vertex="1" parent="1">
          <mxGeometry x="820" y="320" width="70" height="20" as="geometry" />
        </mxCell>
        <mxCell id="T34LJDAt4XdsQyvQCG7Y-32" value="" style="curved=1;endArrow=classic;html=1;" edge="1" parent="1" target="T34LJDAt4XdsQyvQCG7Y-33">
          <mxGeometry width="50" height="50" relative="1" as="geometry">
            <mxPoint x="860" y="320" as="sourcePoint" />
            <mxPoint x="980" y="180" as="targetPoint" />
            <Array as="points">
              <mxPoint x="910" y="320" />
              <mxPoint x="860" y="270" />
            </Array>
          </mxGeometry>
        </mxCell>
        <mxCell id="T34LJDAt4XdsQyvQCG7Y-33" value="entregar cliente" style="text;html=1;strokeColor=none;fillColor=none;align=center;verticalAlign=middle;whiteSpace=wrap;rounded=0;" vertex="1" parent="1">
          <mxGeometry x="980" y="180" width="40" height="20" as="geometry" />
        </mxCell>
        <mxCell id="T34LJDAt4XdsQyvQCG7Y-37" style="edgeStyle=orthogonalEdgeStyle;rounded=0;orthogonalLoop=1;jettySize=auto;html=1;" edge="1" parent="1" source="T34LJDAt4XdsQyvQCG7Y-35" target="T34LJDAt4XdsQyvQCG7Y-40">
          <mxGeometry relative="1" as="geometry">
            <mxPoint x="640" y="140" as="targetPoint" />
          </mxGeometry>
        </mxCell>
        <mxCell id="T34LJDAt4XdsQyvQCG7Y-38" style="edgeStyle=orthogonalEdgeStyle;rounded=0;orthogonalLoop=1;jettySize=auto;html=1;exitX=1;exitY=0.5;exitDx=0;exitDy=0;" edge="1" parent="1" source="T34LJDAt4XdsQyvQCG7Y-35" target="T34LJDAt4XdsQyvQCG7Y-47">
          <mxGeometry relative="1" as="geometry">
            <mxPoint x="710" y="225" as="targetPoint" />
          </mxGeometry>
        </mxCell>
        <mxCell id="T34LJDAt4XdsQyvQCG7Y-39" style="edgeStyle=orthogonalEdgeStyle;rounded=0;orthogonalLoop=1;jettySize=auto;html=1;exitX=0.5;exitY=1;exitDx=0;exitDy=0;" edge="1" parent="1" source="T34LJDAt4XdsQyvQCG7Y-35">
          <mxGeometry relative="1" as="geometry">
            <mxPoint x="640" y="260" as="targetPoint" />
          </mxGeometry>
        </mxCell>
        <mxCell id="T34LJDAt4XdsQyvQCG7Y-35" value="mandar p/cozinha" style="text;html=1;strokeColor=none;fillColor=none;align=center;verticalAlign=middle;whiteSpace=wrap;rounded=0;" vertex="1" parent="1">
          <mxGeometry x="620" y="215" width="40" height="20" as="geometry" />
        </mxCell>
        <mxCell id="T34LJDAt4XdsQyvQCG7Y-41" style="edgeStyle=orthogonalEdgeStyle;rounded=0;orthogonalLoop=1;jettySize=auto;html=1;exitX=1;exitY=0.5;exitDx=0;exitDy=0;" edge="1" parent="1" source="T34LJDAt4XdsQyvQCG7Y-40" target="T34LJDAt4XdsQyvQCG7Y-42">
          <mxGeometry relative="1" as="geometry">
            <mxPoint x="700" y="140" as="targetPoint" />
          </mxGeometry>
        </mxCell>
        <mxCell id="T34LJDAt4XdsQyvQCG7Y-90" style="edgeStyle=orthogonalEdgeStyle;rounded=0;orthogonalLoop=1;jettySize=auto;html=1;exitX=0;exitY=0.5;exitDx=0;exitDy=0;" edge="1" parent="1" source="T34LJDAt4XdsQyvQCG7Y-40" target="T34LJDAt4XdsQyvQCG7Y-91">
          <mxGeometry relative="1" as="geometry">
            <mxPoint x="570" y="140.33333333333337" as="targetPoint" />
          </mxGeometry>
        </mxCell>
        <mxCell id="T34LJDAt4XdsQyvQCG7Y-40" value="lista de pedidos" style="text;html=1;strokeColor=none;fillColor=none;align=center;verticalAlign=middle;whiteSpace=wrap;rounded=0;" vertex="1" parent="1">
          <mxGeometry x="620" y="130" width="40" height="20" as="geometry" />
        </mxCell>
        <mxCell id="T34LJDAt4XdsQyvQCG7Y-43" style="edgeStyle=orthogonalEdgeStyle;rounded=0;orthogonalLoop=1;jettySize=auto;html=1;exitX=1;exitY=0.5;exitDx=0;exitDy=0;" edge="1" parent="1" source="T34LJDAt4XdsQyvQCG7Y-42" target="T34LJDAt4XdsQyvQCG7Y-44">
          <mxGeometry relative="1" as="geometry">
            <mxPoint x="810" y="140" as="targetPoint" />
          </mxGeometry>
        </mxCell>
        <mxCell id="T34LJDAt4XdsQyvQCG7Y-46" style="edgeStyle=orthogonalEdgeStyle;rounded=0;orthogonalLoop=1;jettySize=auto;html=1;exitX=0.5;exitY=1;exitDx=0;exitDy=0;" edge="1" parent="1" source="T34LJDAt4XdsQyvQCG7Y-42">
          <mxGeometry relative="1" as="geometry">
            <mxPoint x="730" y="180" as="targetPoint" />
          </mxGeometry>
        </mxCell>
        <mxCell id="T34LJDAt4XdsQyvQCG7Y-42" value="andamento do pedido" style="text;html=1;strokeColor=none;fillColor=none;align=center;verticalAlign=middle;whiteSpace=wrap;rounded=0;" vertex="1" parent="1">
          <mxGeometry x="690" y="130" width="80" height="20" as="geometry" />
        </mxCell>
        <mxCell id="T34LJDAt4XdsQyvQCG7Y-45" style="edgeStyle=orthogonalEdgeStyle;rounded=0;orthogonalLoop=1;jettySize=auto;html=1;exitX=0.5;exitY=1;exitDx=0;exitDy=0;" edge="1" parent="1" source="T34LJDAt4XdsQyvQCG7Y-44">
          <mxGeometry relative="1" as="geometry">
            <mxPoint x="820" y="200" as="targetPoint" />
          </mxGeometry>
        </mxCell>
        <mxCell id="T34LJDAt4XdsQyvQCG7Y-44" value="pedido concluido" style="text;html=1;strokeColor=none;fillColor=none;align=center;verticalAlign=middle;whiteSpace=wrap;rounded=0;" vertex="1" parent="1">
          <mxGeometry x="790" y="130" width="60" height="20" as="geometry" />
        </mxCell>
        <mxCell id="T34LJDAt4XdsQyvQCG7Y-48" style="edgeStyle=orthogonalEdgeStyle;rounded=0;orthogonalLoop=1;jettySize=auto;html=1;exitX=1;exitY=0.5;exitDx=0;exitDy=0;" edge="1" parent="1" source="T34LJDAt4XdsQyvQCG7Y-47" target="T34LJDAt4XdsQyvQCG7Y-49">
          <mxGeometry relative="1" as="geometry">
            <mxPoint x="810" y="225" as="targetPoint" />
          </mxGeometry>
        </mxCell>
        <mxCell id="T34LJDAt4XdsQyvQCG7Y-47" value="andamento do pedido" style="text;html=1;strokeColor=none;fillColor=none;align=center;verticalAlign=middle;whiteSpace=wrap;rounded=0;" vertex="1" parent="1">
          <mxGeometry x="690" y="215" width="70" height="20" as="geometry" />
        </mxCell>
        <mxCell id="T34LJDAt4XdsQyvQCG7Y-60" style="edgeStyle=orthogonalEdgeStyle;rounded=0;orthogonalLoop=1;jettySize=auto;html=1;exitX=1;exitY=0.25;exitDx=0;exitDy=0;" edge="1" parent="1" source="T34LJDAt4XdsQyvQCG7Y-49" target="T34LJDAt4XdsQyvQCG7Y-61">
          <mxGeometry relative="1" as="geometry">
            <mxPoint x="880" y="180" as="targetPoint" />
          </mxGeometry>
        </mxCell>
        <mxCell id="T34LJDAt4XdsQyvQCG7Y-49" value="notificação pedido ok" style="text;html=1;strokeColor=none;fillColor=none;align=center;verticalAlign=middle;whiteSpace=wrap;rounded=0;rotation=0;" vertex="1" parent="1">
          <mxGeometry x="790" y="215" width="80" height="20" as="geometry" />
        </mxCell>
        <mxCell id="T34LJDAt4XdsQyvQCG7Y-52" style="edgeStyle=orthogonalEdgeStyle;rounded=0;orthogonalLoop=1;jettySize=auto;html=1;exitX=0.5;exitY=1;exitDx=0;exitDy=0;entryX=0.5;entryY=0;entryDx=0;entryDy=0;" edge="1" parent="1" source="T34LJDAt4XdsQyvQCG7Y-50" target="T34LJDAt4XdsQyvQCG7Y-47">
          <mxGeometry relative="1" as="geometry" />
        </mxCell>
        <mxCell id="T34LJDAt4XdsQyvQCG7Y-50" value="notificação" style="text;html=1;strokeColor=none;fillColor=none;align=center;verticalAlign=middle;whiteSpace=wrap;rounded=0;" vertex="1" parent="1">
          <mxGeometry x="710" y="180" width="40" height="20" as="geometry" />
        </mxCell>
        <mxCell id="T34LJDAt4XdsQyvQCG7Y-56" style="edgeStyle=orthogonalEdgeStyle;rounded=0;orthogonalLoop=1;jettySize=auto;html=1;exitX=0;exitY=0;exitDx=0;exitDy=0;entryX=0.5;entryY=1;entryDx=0;entryDy=0;" edge="1" parent="1" source="T34LJDAt4XdsQyvQCG7Y-53" target="T34LJDAt4XdsQyvQCG7Y-15">
          <mxGeometry relative="1" as="geometry" />
        </mxCell>
        <mxCell id="T34LJDAt4XdsQyvQCG7Y-59" style="edgeStyle=orthogonalEdgeStyle;rounded=0;orthogonalLoop=1;jettySize=auto;html=1;exitX=0;exitY=0.5;exitDx=0;exitDy=0;entryX=0.25;entryY=0;entryDx=0;entryDy=0;" edge="1" parent="1" source="T34LJDAt4XdsQyvQCG7Y-53" target="T34LJDAt4XdsQyvQCG7Y-17">
          <mxGeometry relative="1" as="geometry" />
        </mxCell>
        <mxCell id="T34LJDAt4XdsQyvQCG7Y-94" style="edgeStyle=orthogonalEdgeStyle;rounded=0;orthogonalLoop=1;jettySize=auto;html=1;exitX=0.5;exitY=0;exitDx=0;exitDy=0;" edge="1" parent="1" source="T34LJDAt4XdsQyvQCG7Y-53">
          <mxGeometry relative="1" as="geometry">
            <mxPoint x="1350" y="160" as="targetPoint" />
            <Array as="points">
              <mxPoint x="650" y="250" />
              <mxPoint x="1360" y="250" />
              <mxPoint x="1360" y="230" />
            </Array>
          </mxGeometry>
        </mxCell>
        <mxCell id="T34LJDAt4XdsQyvQCG7Y-53" value="cancelamento" style="text;html=1;strokeColor=none;fillColor=none;align=center;verticalAlign=middle;whiteSpace=wrap;rounded=0;" vertex="1" parent="1">
          <mxGeometry x="610" y="270" width="80" height="20" as="geometry" />
        </mxCell>
        <mxCell id="T34LJDAt4XdsQyvQCG7Y-57" value="alterar o pedido" style="text;html=1;strokeColor=none;fillColor=none;align=center;verticalAlign=middle;whiteSpace=wrap;rounded=0;" vertex="1" parent="1">
          <mxGeometry x="680" y="270" width="70" height="20" as="geometry" />
        </mxCell>
        <mxCell id="T34LJDAt4XdsQyvQCG7Y-64" style="edgeStyle=orthogonalEdgeStyle;rounded=0;orthogonalLoop=1;jettySize=auto;html=1;exitX=1;exitY=0.5;exitDx=0;exitDy=0;entryX=0.5;entryY=1;entryDx=0;entryDy=0;" edge="1" parent="1" source="T34LJDAt4XdsQyvQCG7Y-61" target="T34LJDAt4XdsQyvQCG7Y-63">
          <mxGeometry relative="1" as="geometry" />
        </mxCell>
        <mxCell id="T34LJDAt4XdsQyvQCG7Y-92" style="edgeStyle=orthogonalEdgeStyle;rounded=0;orthogonalLoop=1;jettySize=auto;html=1;exitX=0.5;exitY=0;exitDx=0;exitDy=0;" edge="1" parent="1" source="T34LJDAt4XdsQyvQCG7Y-61" target="T34LJDAt4XdsQyvQCG7Y-93">
          <mxGeometry relative="1" as="geometry">
            <mxPoint x="920" y="100" as="targetPoint" />
          </mxGeometry>
        </mxCell>
        <mxCell id="T34LJDAt4XdsQyvQCG7Y-61" value="entregar p/ cliente" style="text;html=1;strokeColor=none;fillColor=none;align=center;verticalAlign=middle;whiteSpace=wrap;rounded=0;" vertex="1" parent="1">
          <mxGeometry x="860" y="170" width="60" height="20" as="geometry" />
        </mxCell>
        <mxCell id="T34LJDAt4XdsQyvQCG7Y-65" style="edgeStyle=orthogonalEdgeStyle;rounded=0;orthogonalLoop=1;jettySize=auto;html=1;exitX=1;exitY=0.5;exitDx=0;exitDy=0;" edge="1" parent="1" source="T34LJDAt4XdsQyvQCG7Y-63">
          <mxGeometry relative="1" as="geometry">
            <mxPoint x="1010" y="140" as="targetPoint" />
          </mxGeometry>
        </mxCell>
        <mxCell id="T34LJDAt4XdsQyvQCG7Y-63" value="fechar conta" style="text;html=1;strokeColor=none;fillColor=none;align=center;verticalAlign=middle;whiteSpace=wrap;rounded=0;" vertex="1" parent="1">
          <mxGeometry x="940" y="130" width="40" height="20" as="geometry" />
        </mxCell>
        <mxCell id="T34LJDAt4XdsQyvQCG7Y-70" style="edgeStyle=orthogonalEdgeStyle;rounded=0;orthogonalLoop=1;jettySize=auto;html=1;" edge="1" parent="1" source="T34LJDAt4XdsQyvQCG7Y-67">
          <mxGeometry relative="1" as="geometry">
            <mxPoint x="1190" y="140" as="targetPoint" />
          </mxGeometry>
        </mxCell>
        <mxCell id="T34LJDAt4XdsQyvQCG7Y-67" value="Numero mesa e valores" style="text;html=1;align=center;verticalAlign=middle;resizable=0;points=[];autosize=1;strokeColor=none;fillColor=none;" vertex="1" parent="1">
          <mxGeometry x="1020" y="130" width="140" height="20" as="geometry" />
        </mxCell>
        <mxCell id="T34LJDAt4XdsQyvQCG7Y-68" value="" style="curved=1;endArrow=classic;html=1;" edge="1" parent="1">
          <mxGeometry width="50" height="50" relative="1" as="geometry">
            <mxPoint x="1060" y="130" as="sourcePoint" />
            <mxPoint x="1110" y="80" as="targetPoint" />
            <Array as="points">
              <mxPoint x="1110" y="130" />
              <mxPoint x="1060" y="80" />
            </Array>
          </mxGeometry>
        </mxCell>
        <mxCell id="T34LJDAt4XdsQyvQCG7Y-69" value="caixa" style="text;html=1;strokeColor=none;fillColor=none;align=center;verticalAlign=middle;whiteSpace=wrap;rounded=0;" vertex="1" parent="1">
          <mxGeometry x="1120" y="70" width="40" height="20" as="geometry" />
        </mxCell>
        <mxCell id="T34LJDAt4XdsQyvQCG7Y-76" style="edgeStyle=orthogonalEdgeStyle;rounded=0;orthogonalLoop=1;jettySize=auto;html=1;" edge="1" parent="1">
          <mxGeometry relative="1" as="geometry">
            <mxPoint x="1300" y="140" as="targetPoint" />
            <mxPoint x="1260" y="140" as="sourcePoint" />
          </mxGeometry>
        </mxCell>
        <mxCell id="T34LJDAt4XdsQyvQCG7Y-75" value="pagamento" style="text;html=1;strokeColor=none;fillColor=none;align=center;verticalAlign=middle;whiteSpace=wrap;rounded=0;" vertex="1" parent="1">
          <mxGeometry x="1201" y="130" width="40" height="20" as="geometry" />
        </mxCell>
        <mxCell id="T34LJDAt4XdsQyvQCG7Y-77" value="fim" style="text;html=1;strokeColor=none;fillColor=none;align=center;verticalAlign=middle;whiteSpace=wrap;rounded=0;" vertex="1" parent="1">
          <mxGeometry x="1320" y="130" width="40" height="20" as="geometry" />
        </mxCell>
        <mxCell id="T34LJDAt4XdsQyvQCG7Y-78" value="G" style="text;html=1;strokeColor=none;fillColor=none;align=center;verticalAlign=middle;whiteSpace=wrap;rounded=0;" vertex="1" parent="1">
          <mxGeometry x="40" y="310" width="40" height="20" as="geometry" />
        </mxCell>
        <mxCell id="T34LJDAt4XdsQyvQCG7Y-79" value="P" style="text;html=1;strokeColor=none;fillColor=none;align=center;verticalAlign=middle;whiteSpace=wrap;rounded=0;" vertex="1" parent="1">
          <mxGeometry x="40" y="330" width="40" height="20" as="geometry" />
        </mxCell>
        <mxCell id="T34LJDAt4XdsQyvQCG7Y-80" value="CZ" style="text;html=1;strokeColor=none;fillColor=none;align=center;verticalAlign=middle;whiteSpace=wrap;rounded=0;" vertex="1" parent="1">
          <mxGeometry x="40" y="350" width="40" height="20" as="geometry" />
        </mxCell>
        <mxCell id="T34LJDAt4XdsQyvQCG7Y-81" value="CX" style="text;html=1;strokeColor=none;fillColor=none;align=center;verticalAlign=middle;whiteSpace=wrap;rounded=0;" vertex="1" parent="1">
          <mxGeometry x="40" y="370" width="40" height="20" as="geometry" />
        </mxCell>
        <mxCell id="T34LJDAt4XdsQyvQCG7Y-82" value="garçom" style="text;html=1;strokeColor=none;fillColor=none;align=center;verticalAlign=middle;whiteSpace=wrap;rounded=0;" vertex="1" parent="1">
          <mxGeometry x="90" y="310" width="40" height="20" as="geometry" />
        </mxCell>
        <mxCell id="T34LJDAt4XdsQyvQCG7Y-83" value="pedido" style="text;html=1;strokeColor=none;fillColor=none;align=center;verticalAlign=middle;whiteSpace=wrap;rounded=0;" vertex="1" parent="1">
          <mxGeometry x="90" y="330" width="40" height="20" as="geometry" />
        </mxCell>
        <mxCell id="T34LJDAt4XdsQyvQCG7Y-84" value="cozinha" style="text;html=1;strokeColor=none;fillColor=none;align=center;verticalAlign=middle;whiteSpace=wrap;rounded=0;" vertex="1" parent="1">
          <mxGeometry x="90" y="350" width="40" height="20" as="geometry" />
        </mxCell>
        <mxCell id="T34LJDAt4XdsQyvQCG7Y-85" value="caixa" style="text;html=1;strokeColor=none;fillColor=none;align=center;verticalAlign=middle;whiteSpace=wrap;rounded=0;" vertex="1" parent="1">
          <mxGeometry x="90" y="370" width="40" height="20" as="geometry" />
        </mxCell>
        <mxCell id="T34LJDAt4XdsQyvQCG7Y-87" value="cozinha" style="text;html=1;strokeColor=none;fillColor=none;align=center;verticalAlign=middle;whiteSpace=wrap;rounded=0;" vertex="1" parent="1">
          <mxGeometry x="570" y="380" width="40" height="20" as="geometry" />
        </mxCell>
        <mxCell id="T34LJDAt4XdsQyvQCG7Y-91" value="cozinha" style="text;html=1;strokeColor=none;fillColor=none;align=center;verticalAlign=middle;whiteSpace=wrap;rounded=0;" vertex="1" parent="1">
          <mxGeometry x="550" y="130.33333333333337" width="40" height="20" as="geometry" />
        </mxCell>
        <mxCell id="T34LJDAt4XdsQyvQCG7Y-93" value="pedido" style="text;html=1;strokeColor=none;fillColor=none;align=center;verticalAlign=middle;whiteSpace=wrap;rounded=0;" vertex="1" parent="1">
          <mxGeometry x="900" y="90" width="40" height="20" as="geometry" />
        </mxCell>
        <mxCell id="T34LJDAt4XdsQyvQCG7Y-130" style="edgeStyle=orthogonalEdgeStyle;rounded=0;orthogonalLoop=1;jettySize=auto;html=1;exitX=0;exitY=0.5;exitDx=0;exitDy=0;fontSize=16;" edge="1" parent="1" source="T34LJDAt4XdsQyvQCG7Y-129">
          <mxGeometry relative="1" as="geometry">
            <mxPoint x="610" y="660" as="targetPoint" />
          </mxGeometry>
        </mxCell>
        <mxCell id="T34LJDAt4XdsQyvQCG7Y-131" style="edgeStyle=orthogonalEdgeStyle;rounded=0;orthogonalLoop=1;jettySize=auto;html=1;exitX=1;exitY=0.5;exitDx=0;exitDy=0;fontSize=16;" edge="1" parent="1" source="T34LJDAt4XdsQyvQCG7Y-129">
          <mxGeometry relative="1" as="geometry">
            <mxPoint x="1000" y="660" as="targetPoint" />
          </mxGeometry>
        </mxCell>
        <mxCell id="T34LJDAt4XdsQyvQCG7Y-129" value="" style="rounded=0;whiteSpace=wrap;html=1;fontSize=16;fillColor=#dae8fc;strokeColor=#6c8ebf;" vertex="1" parent="1">
          <mxGeometry x="767.5" y="610" width="120" height="40" as="geometry" />
        </mxCell>
        <mxCell id="T34LJDAt4XdsQyvQCG7Y-142" style="edgeStyle=orthogonalEdgeStyle;rounded=0;orthogonalLoop=1;jettySize=auto;html=1;exitX=0.5;exitY=1;exitDx=0;exitDy=0;fontSize=16;" edge="1" parent="1" source="T34LJDAt4XdsQyvQCG7Y-132">
          <mxGeometry relative="1" as="geometry">
            <mxPoint x="609.6666666666667" y="710" as="targetPoint" />
          </mxGeometry>
        </mxCell>
        <mxCell id="T34LJDAt4XdsQyvQCG7Y-132" value="bebida" style="text;html=1;strokeColor=none;fillColor=none;align=center;verticalAlign=middle;whiteSpace=wrap;rounded=0;fontSize=16;" vertex="1" parent="1">
          <mxGeometry x="590" y="660" width="40" height="20" as="geometry" />
        </mxCell>
        <mxCell id="T34LJDAt4XdsQyvQCG7Y-133" value="comida" style="text;html=1;strokeColor=none;fillColor=none;align=center;verticalAlign=middle;whiteSpace=wrap;rounded=0;fontSize=16;" vertex="1" parent="1">
          <mxGeometry x="980" y="660" width="40" height="20" as="geometry" />
        </mxCell>
        <mxCell id="T34LJDAt4XdsQyvQCG7Y-134" value="pedido" style="text;html=1;strokeColor=none;fillColor=none;align=center;verticalAlign=middle;whiteSpace=wrap;rounded=0;fontSize=16;" vertex="1" parent="1">
          <mxGeometry x="807.5" y="620" width="40" height="20" as="geometry" />
        </mxCell>
        <mxCell id="T34LJDAt4XdsQyvQCG7Y-143" value="" style="rounded=0;whiteSpace=wrap;html=1;fontSize=16;fillColor=#dae8fc;strokeColor=#6c8ebf;" vertex="1" parent="1">
          <mxGeometry x="580" y="720" width="60" height="20" as="geometry" />
        </mxCell>
        <mxCell id="T34LJDAt4XdsQyvQCG7Y-145" style="edgeStyle=orthogonalEdgeStyle;rounded=0;orthogonalLoop=1;jettySize=auto;html=1;exitX=0.5;exitY=1;exitDx=0;exitDy=0;fontSize=16;" edge="1" parent="1" source="T34LJDAt4XdsQyvQCG7Y-144">
          <mxGeometry relative="1" as="geometry">
            <mxPoint x="609.6666666666667" y="770" as="targetPoint" />
          </mxGeometry>
        </mxCell>
        <mxCell id="T34LJDAt4XdsQyvQCG7Y-144" value="pedido" style="text;html=1;strokeColor=none;fillColor=none;align=center;verticalAlign=middle;whiteSpace=wrap;rounded=0;fontSize=16;" vertex="1" parent="1">
          <mxGeometry x="590" y="720" width="40" height="20" as="geometry" />
        </mxCell>
        <mxCell id="T34LJDAt4XdsQyvQCG7Y-163" style="edgeStyle=orthogonalEdgeStyle;rounded=0;orthogonalLoop=1;jettySize=auto;html=1;exitX=1;exitY=0.5;exitDx=0;exitDy=0;fontSize=16;" edge="1" parent="1" source="T34LJDAt4XdsQyvQCG7Y-147">
          <mxGeometry relative="1" as="geometry">
            <mxPoint x="770" y="795.5714285714287" as="targetPoint" />
          </mxGeometry>
        </mxCell>
        <mxCell id="T34LJDAt4XdsQyvQCG7Y-169" style="edgeStyle=orthogonalEdgeStyle;rounded=0;orthogonalLoop=1;jettySize=auto;html=1;exitX=1;exitY=0;exitDx=0;exitDy=0;fontSize=16;" edge="1" parent="1" source="T34LJDAt4XdsQyvQCG7Y-147">
          <mxGeometry relative="1" as="geometry">
            <mxPoint x="810" y="720" as="targetPoint" />
          </mxGeometry>
        </mxCell>
        <mxCell id="T34LJDAt4XdsQyvQCG7Y-147" value="" style="rounded=0;whiteSpace=wrap;html=1;fontSize=16;fillColor=#d80073;strokeColor=#A50040;fontColor=#ffffff;" vertex="1" parent="1">
          <mxGeometry x="556" y="770" width="110" height="50" as="geometry" />
        </mxCell>
        <mxCell id="T34LJDAt4XdsQyvQCG7Y-152" style="edgeStyle=orthogonalEdgeStyle;rounded=0;orthogonalLoop=1;jettySize=auto;html=1;exitX=0.5;exitY=1;exitDx=0;exitDy=0;fontSize=16;" edge="1" parent="1" source="T34LJDAt4XdsQyvQCG7Y-149">
          <mxGeometry relative="1" as="geometry">
            <mxPoint x="611.3333333333335" y="860" as="targetPoint" />
          </mxGeometry>
        </mxCell>
        <mxCell id="T34LJDAt4XdsQyvQCG7Y-149" value="confirmação pedido" style="text;html=1;strokeColor=none;fillColor=none;align=center;verticalAlign=middle;whiteSpace=wrap;rounded=0;fontSize=16;" vertex="1" parent="1">
          <mxGeometry x="586" y="765" width="50" height="60" as="geometry" />
        </mxCell>
        <mxCell id="T34LJDAt4XdsQyvQCG7Y-158" style="edgeStyle=orthogonalEdgeStyle;rounded=0;orthogonalLoop=1;jettySize=auto;html=1;exitX=0.5;exitY=1;exitDx=0;exitDy=0;fontSize=16;" edge="1" parent="1" source="T34LJDAt4XdsQyvQCG7Y-153">
          <mxGeometry relative="1" as="geometry">
            <mxPoint x="611.2857142857142" y="1000" as="targetPoint" />
          </mxGeometry>
        </mxCell>
        <mxCell id="T34LJDAt4XdsQyvQCG7Y-153" value="" style="rounded=0;whiteSpace=wrap;html=1;fontSize=16;fillColor=#dae8fc;strokeColor=#6c8ebf;" vertex="1" parent="1">
          <mxGeometry x="570" y="865" width="83" height="65" as="geometry" />
        </mxCell>
        <mxCell id="T34LJDAt4XdsQyvQCG7Y-154" value="enviar para bar" style="text;html=1;strokeColor=none;fillColor=none;align=center;verticalAlign=middle;whiteSpace=wrap;rounded=0;fontSize=16;" vertex="1" parent="1">
          <mxGeometry x="589" y="890" width="40" height="20" as="geometry" />
        </mxCell>
        <mxCell id="T34LJDAt4XdsQyvQCG7Y-175" style="edgeStyle=orthogonalEdgeStyle;rounded=0;orthogonalLoop=1;jettySize=auto;html=1;exitX=0.5;exitY=1;exitDx=0;exitDy=0;fontSize=16;" edge="1" parent="1" source="T34LJDAt4XdsQyvQCG7Y-159">
          <mxGeometry relative="1" as="geometry">
            <mxPoint x="611.3333333333335" y="1130" as="targetPoint" />
          </mxGeometry>
        </mxCell>
        <mxCell id="T34LJDAt4XdsQyvQCG7Y-159" value="" style="rounded=0;whiteSpace=wrap;html=1;fontSize=16;fillColor=#dae8fc;strokeColor=#6c8ebf;" vertex="1" parent="1">
          <mxGeometry x="556.5" y="1005" width="110" height="65" as="geometry" />
        </mxCell>
        <mxCell id="T34LJDAt4XdsQyvQCG7Y-160" value="Preparação do&amp;nbsp;&lt;br&gt;pedido" style="text;html=1;strokeColor=none;fillColor=none;align=center;verticalAlign=middle;whiteSpace=wrap;rounded=0;fontSize=16;" vertex="1" parent="1">
          <mxGeometry x="589" y="1005" width="54" height="60" as="geometry" />
        </mxCell>
        <mxCell id="T34LJDAt4XdsQyvQCG7Y-164" value="" style="rounded=0;whiteSpace=wrap;html=1;fontSize=16;fillColor=#fff2cc;strokeColor=#d6b656;" vertex="1" parent="1">
          <mxGeometry x="770" y="770" width="110" height="50" as="geometry" />
        </mxCell>
        <mxCell id="T34LJDAt4XdsQyvQCG7Y-209" style="edgeStyle=orthogonalEdgeStyle;rounded=0;orthogonalLoop=1;jettySize=auto;html=1;exitX=0.5;exitY=1;exitDx=0;exitDy=0;entryX=0.61;entryY=0.019;entryDx=0;entryDy=0;entryPerimeter=0;fontSize=16;" edge="1" parent="1" source="T34LJDAt4XdsQyvQCG7Y-165" target="T34LJDAt4XdsQyvQCG7Y-207">
          <mxGeometry relative="1" as="geometry" />
        </mxCell>
        <mxCell id="T34LJDAt4XdsQyvQCG7Y-165" value="cancelamento" style="text;html=1;strokeColor=none;fillColor=none;align=center;verticalAlign=middle;whiteSpace=wrap;rounded=0;fontSize=16;" vertex="1" parent="1">
          <mxGeometry x="800" y="765" width="50" height="60" as="geometry" />
        </mxCell>
        <mxCell id="T34LJDAt4XdsQyvQCG7Y-174" style="edgeStyle=orthogonalEdgeStyle;rounded=0;orthogonalLoop=1;jettySize=auto;html=1;exitX=0;exitY=0.5;exitDx=0;exitDy=0;entryX=1;entryY=0.5;entryDx=0;entryDy=0;fontSize=16;" edge="1" parent="1" source="T34LJDAt4XdsQyvQCG7Y-170" target="T34LJDAt4XdsQyvQCG7Y-143">
          <mxGeometry relative="1" as="geometry" />
        </mxCell>
        <mxCell id="T34LJDAt4XdsQyvQCG7Y-226" value="" style="edgeStyle=orthogonalEdgeStyle;rounded=0;orthogonalLoop=1;jettySize=auto;html=1;fontSize=16;" edge="1" parent="1" source="T34LJDAt4XdsQyvQCG7Y-170">
          <mxGeometry relative="1" as="geometry">
            <mxPoint x="940" y="720" as="targetPoint" />
            <Array as="points">
              <mxPoint x="920" y="690" />
              <mxPoint x="920" y="720" />
            </Array>
          </mxGeometry>
        </mxCell>
        <mxCell id="T34LJDAt4XdsQyvQCG7Y-170" value="" style="rounded=0;whiteSpace=wrap;html=1;fontSize=16;fillColor=#fff2cc;strokeColor=#d6b656;" vertex="1" parent="1">
          <mxGeometry x="770" y="665" width="110" height="50" as="geometry" />
        </mxCell>
        <mxCell id="T34LJDAt4XdsQyvQCG7Y-171" value="Alterar pedido" style="text;html=1;strokeColor=none;fillColor=none;align=center;verticalAlign=middle;whiteSpace=wrap;rounded=0;fontSize=16;" vertex="1" parent="1">
          <mxGeometry x="785" y="660" width="80" height="60" as="geometry" />
        </mxCell>
        <mxCell id="T34LJDAt4XdsQyvQCG7Y-176" value="" style="rounded=0;whiteSpace=wrap;html=1;fontSize=16;fillColor=#dae8fc;strokeColor=#6c8ebf;" vertex="1" parent="1">
          <mxGeometry x="556.5" y="1135" width="110" height="50" as="geometry" />
        </mxCell>
        <mxCell id="T34LJDAt4XdsQyvQCG7Y-186" style="edgeStyle=orthogonalEdgeStyle;rounded=0;orthogonalLoop=1;jettySize=auto;html=1;exitX=0.5;exitY=1;exitDx=0;exitDy=0;fontSize=16;entryX=0;entryY=0.75;entryDx=0;entryDy=0;" edge="1" parent="1" source="T34LJDAt4XdsQyvQCG7Y-177" target="T34LJDAt4XdsQyvQCG7Y-187">
          <mxGeometry relative="1" as="geometry">
            <mxPoint x="611.3333333333335" y="1240" as="targetPoint" />
          </mxGeometry>
        </mxCell>
        <mxCell id="T34LJDAt4XdsQyvQCG7Y-177" value="pedido pronto" style="text;html=1;strokeColor=none;fillColor=none;align=center;verticalAlign=middle;whiteSpace=wrap;rounded=0;fontSize=16;" vertex="1" parent="1">
          <mxGeometry x="586.5" y="1130" width="50" height="60" as="geometry" />
        </mxCell>
        <mxCell id="T34LJDAt4XdsQyvQCG7Y-203" style="edgeStyle=orthogonalEdgeStyle;rounded=0;orthogonalLoop=1;jettySize=auto;html=1;exitX=1;exitY=0.5;exitDx=0;exitDy=0;entryX=0;entryY=0.75;entryDx=0;entryDy=0;fontSize=16;" edge="1" parent="1" source="T34LJDAt4XdsQyvQCG7Y-187" target="T34LJDAt4XdsQyvQCG7Y-190">
          <mxGeometry relative="1" as="geometry">
            <Array as="points">
              <mxPoint x="840" y="1260" />
              <mxPoint x="840" y="1340" />
              <mxPoint x="750" y="1340" />
              <mxPoint x="750" y="1432" />
            </Array>
          </mxGeometry>
        </mxCell>
        <mxCell id="T34LJDAt4XdsQyvQCG7Y-187" value="" style="rounded=0;whiteSpace=wrap;html=1;fontSize=16;fillColor=#dae8fc;strokeColor=#6c8ebf;" vertex="1" parent="1">
          <mxGeometry x="755" y="1235" width="110" height="50" as="geometry" />
        </mxCell>
        <mxCell id="T34LJDAt4XdsQyvQCG7Y-188" value="Entregar p/cliente" style="text;html=1;strokeColor=none;fillColor=none;align=center;verticalAlign=middle;whiteSpace=wrap;rounded=0;fontSize=16;" vertex="1" parent="1">
          <mxGeometry x="780" y="1230" width="50" height="60" as="geometry" />
        </mxCell>
        <mxCell id="T34LJDAt4XdsQyvQCG7Y-189" value="caixa" style="text;html=1;strokeColor=none;fillColor=none;align=center;verticalAlign=middle;whiteSpace=wrap;rounded=0;fontSize=16;" vertex="1" parent="1">
          <mxGeometry x="840" y="1370" width="40" height="20" as="geometry" />
        </mxCell>
        <mxCell id="T34LJDAt4XdsQyvQCG7Y-190" value="" style="rounded=0;whiteSpace=wrap;html=1;fontSize=16;fillColor=#fff2cc;strokeColor=#d6b656;" vertex="1" parent="1">
          <mxGeometry x="770" y="1395" width="110" height="50" as="geometry" />
        </mxCell>
        <mxCell id="T34LJDAt4XdsQyvQCG7Y-196" style="edgeStyle=orthogonalEdgeStyle;rounded=0;orthogonalLoop=1;jettySize=auto;html=1;exitX=0.5;exitY=1;exitDx=0;exitDy=0;fontSize=16;" edge="1" parent="1" source="T34LJDAt4XdsQyvQCG7Y-191">
          <mxGeometry relative="1" as="geometry">
            <mxPoint x="824.4285714285716" y="1480" as="targetPoint" />
          </mxGeometry>
        </mxCell>
        <mxCell id="T34LJDAt4XdsQyvQCG7Y-191" value="fechamento de conta" style="text;html=1;strokeColor=none;fillColor=none;align=center;verticalAlign=middle;whiteSpace=wrap;rounded=0;fontSize=16;" vertex="1" parent="1">
          <mxGeometry x="800" y="1390" width="50" height="60" as="geometry" />
        </mxCell>
        <mxCell id="T34LJDAt4XdsQyvQCG7Y-192" value="" style="rounded=0;whiteSpace=wrap;html=1;fontSize=16;fillColor=#f8cecc;strokeColor=#b85450;" vertex="1" parent="1">
          <mxGeometry x="770" y="1585" width="110" height="50" as="geometry" />
        </mxCell>
        <mxCell id="T34LJDAt4XdsQyvQCG7Y-193" value="fim" style="text;html=1;strokeColor=none;fillColor=none;align=center;verticalAlign=middle;whiteSpace=wrap;rounded=0;fontSize=16;" vertex="1" parent="1">
          <mxGeometry x="800" y="1580" width="50" height="60" as="geometry" />
        </mxCell>
        <mxCell id="T34LJDAt4XdsQyvQCG7Y-194" value="" style="rounded=0;whiteSpace=wrap;html=1;fontSize=16;fillColor=#dae8fc;strokeColor=#6c8ebf;" vertex="1" parent="1">
          <mxGeometry x="765" y="1495" width="125" height="55" as="geometry" />
        </mxCell>
        <mxCell id="T34LJDAt4XdsQyvQCG7Y-198" style="edgeStyle=orthogonalEdgeStyle;rounded=0;orthogonalLoop=1;jettySize=auto;html=1;exitX=1;exitY=0.5;exitDx=0;exitDy=0;fontSize=16;" edge="1" parent="1" source="T34LJDAt4XdsQyvQCG7Y-195">
          <mxGeometry relative="1" as="geometry">
            <mxPoint x="990" y="1523" as="targetPoint" />
          </mxGeometry>
        </mxCell>
        <mxCell id="T34LJDAt4XdsQyvQCG7Y-195" value="verificão numero mesa e entrega de valores" style="text;html=1;strokeColor=#d6b656;fillColor=#fff2cc;align=center;verticalAlign=middle;whiteSpace=wrap;rounded=0;fontSize=16;" vertex="1" parent="1">
          <mxGeometry x="767.5" y="1492.5" width="122.5" height="60" as="geometry" />
        </mxCell>
        <mxCell id="T34LJDAt4XdsQyvQCG7Y-199" value="" style="rounded=0;whiteSpace=wrap;html=1;fontSize=16;fillColor=#d5e8d4;strokeColor=#82b366;" vertex="1" parent="1">
          <mxGeometry x="990" y="1495" width="110" height="50" as="geometry" />
        </mxCell>
        <mxCell id="T34LJDAt4XdsQyvQCG7Y-202" style="edgeStyle=orthogonalEdgeStyle;rounded=0;orthogonalLoop=1;jettySize=auto;html=1;exitX=0.5;exitY=1;exitDx=0;exitDy=0;entryX=1;entryY=0.75;entryDx=0;entryDy=0;fontSize=16;" edge="1" parent="1" source="T34LJDAt4XdsQyvQCG7Y-200" target="T34LJDAt4XdsQyvQCG7Y-192">
          <mxGeometry relative="1" as="geometry" />
        </mxCell>
        <mxCell id="T34LJDAt4XdsQyvQCG7Y-200" value="pagamento" style="text;html=1;strokeColor=none;fillColor=none;align=center;verticalAlign=middle;whiteSpace=wrap;rounded=0;fontSize=16;" vertex="1" parent="1">
          <mxGeometry x="1020" y="1490" width="50" height="60" as="geometry" />
        </mxCell>
        <mxCell id="T34LJDAt4XdsQyvQCG7Y-206" value="" style="rounded=0;whiteSpace=wrap;html=1;fontSize=16;fillColor=#f8cecc;strokeColor=#b85450;" vertex="1" parent="1">
          <mxGeometry x="765" y="885" width="110" height="50" as="geometry" />
        </mxCell>
        <mxCell id="T34LJDAt4XdsQyvQCG7Y-207" value="fim" style="text;html=1;strokeColor=none;fillColor=none;align=center;verticalAlign=middle;whiteSpace=wrap;rounded=0;fontSize=16;" vertex="1" parent="1">
          <mxGeometry x="795" y="880" width="50" height="60" as="geometry" />
        </mxCell>
        <mxCell id="T34LJDAt4XdsQyvQCG7Y-210" value="" style="rounded=0;whiteSpace=wrap;html=1;fontSize=16;fillColor=#e1d5e7;strokeColor=#9673a6;" vertex="1" parent="1">
          <mxGeometry x="945" y="695" width="110" height="50" as="geometry" />
        </mxCell>
        <mxCell id="T34LJDAt4XdsQyvQCG7Y-214" style="edgeStyle=orthogonalEdgeStyle;rounded=0;orthogonalLoop=1;jettySize=auto;html=1;exitX=0.5;exitY=1;exitDx=0;exitDy=0;entryX=0.5;entryY=0;entryDx=0;entryDy=0;fontSize=16;" edge="1" parent="1" source="T34LJDAt4XdsQyvQCG7Y-211" target="T34LJDAt4XdsQyvQCG7Y-213">
          <mxGeometry relative="1" as="geometry" />
        </mxCell>
        <mxCell id="T34LJDAt4XdsQyvQCG7Y-211" value="pedido" style="text;html=1;strokeColor=none;fillColor=none;align=center;verticalAlign=middle;whiteSpace=wrap;rounded=0;fontSize=16;" vertex="1" parent="1">
          <mxGeometry x="975" y="690" width="50" height="60" as="geometry" />
        </mxCell>
        <mxCell id="T34LJDAt4XdsQyvQCG7Y-222" style="edgeStyle=orthogonalEdgeStyle;rounded=0;orthogonalLoop=1;jettySize=auto;html=1;exitX=0;exitY=0.5;exitDx=0;exitDy=0;fontSize=16;entryX=1;entryY=0.5;entryDx=0;entryDy=0;entryPerimeter=0;" edge="1" parent="1" source="T34LJDAt4XdsQyvQCG7Y-212" target="T34LJDAt4XdsQyvQCG7Y-164">
          <mxGeometry relative="1" as="geometry">
            <mxPoint x="890" y="795" as="targetPoint" />
          </mxGeometry>
        </mxCell>
        <mxCell id="T34LJDAt4XdsQyvQCG7Y-223" style="edgeStyle=orthogonalEdgeStyle;rounded=0;orthogonalLoop=1;jettySize=auto;html=1;exitX=0;exitY=0.25;exitDx=0;exitDy=0;entryX=1;entryY=1;entryDx=0;entryDy=0;fontSize=16;" edge="1" parent="1" source="T34LJDAt4XdsQyvQCG7Y-212" target="T34LJDAt4XdsQyvQCG7Y-171">
          <mxGeometry relative="1" as="geometry">
            <Array as="points">
              <mxPoint x="945" y="760" />
              <mxPoint x="865" y="760" />
            </Array>
          </mxGeometry>
        </mxCell>
        <mxCell id="T34LJDAt4XdsQyvQCG7Y-212" value="" style="rounded=0;whiteSpace=wrap;html=1;fontSize=16;fillColor=#d80073;strokeColor=#A50040;fontColor=#ffffff;" vertex="1" parent="1">
          <mxGeometry x="945" y="770" width="110" height="50" as="geometry" />
        </mxCell>
        <mxCell id="T34LJDAt4XdsQyvQCG7Y-217" style="edgeStyle=orthogonalEdgeStyle;rounded=0;orthogonalLoop=1;jettySize=auto;html=1;exitX=0.5;exitY=1;exitDx=0;exitDy=0;fontSize=16;" edge="1" parent="1" source="T34LJDAt4XdsQyvQCG7Y-213">
          <mxGeometry relative="1" as="geometry">
            <mxPoint x="1000" y="870" as="targetPoint" />
          </mxGeometry>
        </mxCell>
        <mxCell id="T34LJDAt4XdsQyvQCG7Y-213" value="confirmação pedido" style="text;html=1;strokeColor=none;fillColor=none;align=center;verticalAlign=middle;whiteSpace=wrap;rounded=0;fontSize=16;" vertex="1" parent="1">
          <mxGeometry x="975" y="765" width="50" height="60" as="geometry" />
        </mxCell>
        <mxCell id="T34LJDAt4XdsQyvQCG7Y-215" value="" style="rounded=0;whiteSpace=wrap;html=1;fontSize=16;fillColor=#e1d5e7;strokeColor=#9673a6;" vertex="1" parent="1">
          <mxGeometry x="945" y="880" width="110" height="50" as="geometry" />
        </mxCell>
        <mxCell id="T34LJDAt4XdsQyvQCG7Y-220" style="edgeStyle=orthogonalEdgeStyle;rounded=0;orthogonalLoop=1;jettySize=auto;html=1;exitX=0.5;exitY=1;exitDx=0;exitDy=0;entryX=0.5;entryY=0;entryDx=0;entryDy=0;fontSize=16;" edge="1" parent="1" source="T34LJDAt4XdsQyvQCG7Y-216" target="T34LJDAt4XdsQyvQCG7Y-219">
          <mxGeometry relative="1" as="geometry" />
        </mxCell>
        <mxCell id="T34LJDAt4XdsQyvQCG7Y-216" value="enviar para cozinha" style="text;html=1;strokeColor=none;fillColor=none;align=center;verticalAlign=middle;whiteSpace=wrap;rounded=0;fontSize=16;" vertex="1" parent="1">
          <mxGeometry x="975" y="875" width="50" height="60" as="geometry" />
        </mxCell>
        <mxCell id="T34LJDAt4XdsQyvQCG7Y-218" value="" style="rounded=0;whiteSpace=wrap;html=1;fontSize=16;fillColor=#e1d5e7;strokeColor=#9673a6;" vertex="1" parent="1">
          <mxGeometry x="945" y="1005" width="110" height="50" as="geometry" />
        </mxCell>
        <mxCell id="T34LJDAt4XdsQyvQCG7Y-221" style="edgeStyle=orthogonalEdgeStyle;rounded=0;orthogonalLoop=1;jettySize=auto;html=1;exitX=0.5;exitY=1;exitDx=0;exitDy=0;fontSize=16;" edge="1" parent="1" source="T34LJDAt4XdsQyvQCG7Y-219">
          <mxGeometry relative="1" as="geometry">
            <mxPoint x="1000" y="1130" as="targetPoint" />
          </mxGeometry>
        </mxCell>
        <mxCell id="T34LJDAt4XdsQyvQCG7Y-219" value="Preparação do pedido" style="text;html=1;strokeColor=none;fillColor=none;align=center;verticalAlign=middle;whiteSpace=wrap;rounded=0;fontSize=16;" vertex="1" parent="1">
          <mxGeometry x="975" y="1000" width="50" height="60" as="geometry" />
        </mxCell>
        <mxCell id="T34LJDAt4XdsQyvQCG7Y-231" style="edgeStyle=orthogonalEdgeStyle;rounded=0;orthogonalLoop=1;jettySize=auto;html=1;exitX=0.5;exitY=1;exitDx=0;exitDy=0;fontSize=16;entryX=1;entryY=0.5;entryDx=0;entryDy=0;" edge="1" parent="1" source="T34LJDAt4XdsQyvQCG7Y-229" target="T34LJDAt4XdsQyvQCG7Y-187">
          <mxGeometry relative="1" as="geometry">
            <mxPoint x="1000" y="1250" as="targetPoint" />
          </mxGeometry>
        </mxCell>
        <mxCell id="T34LJDAt4XdsQyvQCG7Y-229" value="" style="rounded=0;whiteSpace=wrap;html=1;fontSize=16;fillColor=#e1d5e7;strokeColor=#9673a6;" vertex="1" parent="1">
          <mxGeometry x="945" y="1135" width="110" height="50" as="geometry" />
        </mxCell>
        <mxCell id="T34LJDAt4XdsQyvQCG7Y-230" value="pedido pronto" style="text;html=1;strokeColor=none;fillColor=none;align=center;verticalAlign=middle;whiteSpace=wrap;rounded=0;fontSize=16;" vertex="1" parent="1">
          <mxGeometry x="975" y="1150" width="40" height="20" as="geometry" />
        </mxCell>
      </root>
    </mxGraphModel>
  </diagram>
</mxfile>
